# AST/ASF file generated using VICON BodyLanguage
# -----------------------------------------------
:version 1.10
:name VICON
:units
  mass 1.0
  length 0.45
  angle deg
:documentation
   .ast/.asf automatically generated from VICON data using
   VICON BodyBuilder and BodyLanguage model FoxedUp or BRILLIANT.MOD
:root
   order TX TY TZ RX RY RZ
   axis XYZ
   position 0 0 0  
   orientation 0 0 0 
:bonedata
  begin
     id 1 
     name lhipjoint
     direction 0.734343 -0.627749 0.258209 
     length 2.5437 
     axis 0 0 0  XYZ
  end
  begin
     id 2 
     name lfemur
     direction 0.34202 -0.939693 0  
     length 6.7391  
     axis 0 0 20  XYZ
    dof rx ry rz
    limits (-160.0 20.0)
           (-70.0 70.0)
           (-60.0 70.0)
  end
  begin
     id 3 
     name ltibia
     direction 0.34202 -0.939693 0   
     length 7.21536   
     axis 0 0 20   XYZ
    dof rx
    limits (-10.0 170.0)
  end
  begin
     id 4 
     name lfoot
     direction 0.0489572 -0.134509 0.989702   
     length 1.61313   
     axis -90 7.62852e-016 20   XYZ
    dof rx rz
    limits (-45.0 90.0)
           (-70.0 20.0)
  end
  begin
     id 5 
     name ltoes
     direction 1.53451e-011 -4.21692e-011 1   
     length 0.823104   
     axis -90 7.62852e-016 20   XYZ
    dof rx
    limits (-90.0 20.0)
  end
  begin
     id 6 
     name rhipjoint
     direction -0.746398 -0.615468 0.253157   
     length 2.59446  
     axis 0 0 0  XYZ 
  end
  begin
     id 7 
     name rfemur
     direction -0.34202 -0.939693 0   
     length 6.7075   
     axis 0 0 -20   XYZ
    dof rx ry rz
    limits (-160.0 20.0)
           (-70.0 70.0)
           (-70.0 60.0)
  end
  begin
     id 8 
     name rtibia
     direction -0.34202 -0.939693 0   
     length 7.27262   
     axis 0 0 -20   XYZ
    dof rx
    limits (-10.0 170.0)
 end
 begin
     id 9 
     name rfoot
     direction -0.0455203 -0.125066 0.991104   
     length 1.91095  
     axis -90 -7.62852e-016 -20   XYZ
    dof rx rz
    limits (-45.0 90.0)
           (-20.0 70.0)
  end
  begin
     id 10 
     name rtoes
     direction -1.53601e-011 -4.21913e-011 1   
     length 0.969037   
     axis -90 -7.62852e-016 -20   XYZ
    dof rx
    limits (-90.0 20.0)
  end
  begin
     id 11 
     name lowerback
     direction 0.0181546 0.999122 -0.0377542   
     length 1.99916   
     axis 0 0 0   XYZ
    dof rx ry rz
    limits (-20.0 45.0)
           (-30.0 30.0)
           (-30.0 30.0)
  end
  begin
     id 12 
     name upperback
     direction 0.0203486 0.99589 0.0882534   
     length 1.951   
     axis 0 0 0   XYZ
    dof rx ry rz
    limits (-20.0 45.0)
           (-30.0 30.0)
           (-30.0 30.0)
  end
  begin
     id 13 
     name thorax
     direction 0.0131685 0.994241 0.106355   
     length 1.97461   
     axis 0 0 0   XYZ
    dof rx ry rz
    limits (-20.0 45.0)
           (-30.0 30.0)
           (-30.0 30.0)
  end
  begin
     id 14 
     name lowerneck
     direction -0.0281395 0.999325 0.023617   
     length 1.7959   
     axis 0 0 0   XYZ
    dof rx ry rz
    limits (-20.0 45.0)
           (-30.0 30.0)
           (-30.0 30.0)
  end
  begin
     id 15 
     name upperneck
     direction 0.0288721 0.991984 -0.123019   
     length 1.79917   
     axis 0 0 0   XYZ
    dof rx ry rz
    limits (-20.0 45.0)
           (-30.0 30.0)
           (-30.0 30.0)
  end
  begin
     id 16
     name head
     direction 0.0133797 0.998944 -0.0439492  
     length 1.80902  
     axis 0 0 0   XYZ
    dof rx ry rz
    limits (-20.0 45.0)
           (-30.0 30.0)
           (-30.0 30.0)
  end
  begin
     id 17 
     name lclavicle
     direction 0.919195 0.377107 0.113449  
     length 3.17815  
     axis 0 0 0   XYZ
    dof ry rz
    limits (-20.0 10.0)
           (0.0 20.0)
  end
  begin
     id 18 
     name lhumerus
     direction 1 -4.48959e-011 2.13129e-027   
     length 4.84137   
     axis 180 -30 -90   XYZ
    dof rx ry rz
    limits (-60.0 90.0)
           (-90.0 90.0)
           (-90.0 90.0)
  end
  begin
     id 19
     name lradius
     direction 1 -4.48957e-011 -6.30627e-028   
     length 3.2452   
     axis 180 -30 -90   XYZ
    dof rx
    limits (-10.0 170.0)
  end
  begin
     id 20
     name lwrist
     direction 1 -4.4901e-011 9.13299e-027   
     length 1.6226   
     axis -6.84618e-015 90 90   XYZ
    dof ry
    limits (-180.0 0.0)
 end
  begin
     id 21 
     name lhand
     direction 1 -4.48816e-011 1.82293e-026   
     length 0.521221   
     axis -1.16502e-014 90 90   XYZ
    dof rx rz
    limits (-90.0 90.0)
           (-45.0 45.0)
  end
  begin
     id 22 
     name lfingers
     direction 1 -4.49108e-011 3.65687e-026   
     length 0.420221   
     axis -2.33008e-014 90 90   XYZ
    dof rx
    limits (0.0 90.0)
  end
  begin
     id 23
     name lthumb
     direction 0.707107 -6.34943e-011 0.707107   
     length 0.603356   
     axis -90 45 5.69224e-014   XYZ
    dof rx rz
    limits (-45.0 45.0)
           (-45.0 45.0)
  end
  begin
     id 24 
     name rclavicle
     direction -0.90847 0.38596 0.160368   
     length 3.12973  
     axis 0 0 0   XYZ 
    dof ry rz
    limits (-10.0 20.0)
           (-20.0 0.0)
  end
  begin
     id 25 
     name rhumerus
     direction -1 -4.48974e-011 4.47268e-028  
     length 4.72284   
     axis 180 30 90   XYZ
    dof rx ry rz
    limits (-90.0 60.0)
           (-90.0 90.0)
           (-90.0 90.0)
  end
  begin
     id 26 
     name rradius
     direction -1 -4.48969e-011 3.43203e-027   
     length 3.23459   
     axis 180 30 90   XYZ
    dof rx
    limits (-10.0 170.0)
  end
  begin
     id 27 
     name rwrist
     direction -1 -4.48969e-011 9.12911e-027   
     length 1.6173   
     axis -6.84618e-015 -90 -90   XYZ
    dof ry
    limits (-180.0 0.0)
  end
  begin
     id 28
     name rhand
     direction -1 -4.49194e-011 1.83006e-026   
     length 0.307416   
     axis -1.16502e-014 -90 -90   XYZ
    dof rx rz
    limits (-90.0 90.0)
           (-45.0 45.0)
  end
  begin
     id 29
     name rfingers
     direction -1 -4.48423e-011 3.63103e-026   
     length 0.247847   
     axis -2.33008e-014 -90 -90   XYZ
    dof rx
    limits (0.0 90.0)
  end
  begin
     id 30
     name rthumb
     direction -0.707107 -6.34802e-011 0.707107   
     length 0.35586   
     axis -90 -45 -5.69224e-014   XYZ
    dof rx rz
    limits (-45.0 45.0)
           (-45.0 45.0)
  end
:hierarchy
  begin
    root lhipjoint rhipjoint lowerback
    lhipjoint lfemur
    lfemur ltibia
    ltibia lfoot
    lfoot ltoes
    rhipjoint rfemur
    rfemur rtibia
    rtibia rfoot
    rfoot rtoes
    lowerback upperback
    upperback thorax
    thorax lowerneck lclavicle rclavicle
    lowerneck upperneck
    upperneck head
    lclavicle lhumerus
    lhumerus lradius
    lradius lwrist
    lwrist lhand lthumb
    lhand lfingers
    rclavicle rhumerus
    rhumerus rradius
    rradius rwrist
    rwrist rhand rthumb
    rhand rfingers
  end

#!OML:ASF H:\Terrain\Patient Classification 1\Animal1\Tuesday\Animal1.ASF
:FULLY-SPECIFIED
:DEGREES
404
root 12.4712 16.4266 -13.4919 4.08646 -12.8019 0.0766034
lowerback 2.5904 -3.26221 -1.96714
upperback 3.60501 -4.39562 1.11273
thorax 2.49303 -2.26824 2.24904
lowerneck -3.48313 -5.90247 -6.96778
upperneck 9.34156 -9.67214 19.8155
head 4.67689 -4.20074 6.81024
rclavicle 1.49213e-014 9.69075e-015
rhumerus 40.2426 4.51041 16.518
rradius 116.05
rwrist -72.7494
rhand 27.4604 11.5212
rfingers 7.12502
rthumb 51.4099 -8.92853
lclavicle 1.49213e-014 9.69075e-015
lhumerus -36.4985 -23.7613 93.1037
lradius 42.891
lwrist -22.3139
lhand 2.07099 45.0994
lfingers 7.12502
lthumb 27.5725 73.0997
rfemur -14.9443 15.263 15.9529
rtibia 22.5079
rfoot -4.70873 -23.078
rtoes -11.2689
lfemur -7.04825 -16.6669 -10.1093
ltibia 12.3639
lfoot -12.2813 16.6803
ltoes -16.0309
405
root 12.471 16.4281 -13.4915 4.07483 -12.7623 0.124902
lowerback 2.58325 -3.21264 -1.98489
upperback 3.62697 -4.3285 1.05647
thorax 2.51281 -2.23463 2.20026
lowerneck -3.59162 -5.92079 -6.99368
upperneck 9.30918 -9.69426 19.8698
head 4.6941 -4.20555 6.82745
rclavicle -1.0348e-013 2.70844e-014
rhumerus 40.0638 4.413 16.5131
rradius 116.643
rwrist -73.1013
rhand 27.2042 11.5976
rfingers 7.12502
rthumb 51.1768 -8.98466
lclavicle -1.0348e-013 2.70844e-014
lhumerus -36.4773 -23.8289 93.0952
lradius 42.8994
lwrist -22.3829
lhand 2.08171 45.1524
lfingers 7.12502
lthumb 27.5827 73.1511
rfemur -14.9252 15.2658 15.8862
rtibia 22.5262
rfoot -5.10439 -22.9982
rtoes -9.79215
lfemur -7.05934 -16.5761 -10.1684
ltibia 12.3652
lfoot -12.3236 16.5695
ltoes -15.6889
406
root 12.4701 16.4299 -13.4915 4.04623 -12.7592 0.115472
lowerback 2.61067 -3.15852 -1.94804
upperback 3.6433 -4.25548 1.00937
thorax 2.50373 -2.1965 2.13299
lowerneck -3.79174 -5.93971 -7.14817
upperneck 9.43934 -9.7521 20.0576
head 4.7946 -4.21402 6.90777
rclavicle 1.6027e-014 -6.55989e-015
rhumerus 39.9187 4.40108 16.4614
rradius 117.26
rwrist -73.3716
rhand 27.3603 11.8403
rfingers 7.12502
rthumb 51.3189 -8.66141
lclavicle 1.6027e-014 -6.55989e-015
lhumerus -36.4998 -23.9838 93.104
lradius 42.928
lwrist -22.3171
lhand 2.07536 45.0715
lfingers 7.12502
lthumb 27.5767 73.0712
rfemur -14.8657 15.3079 15.8917
rtibia 22.5253
rfoot -5.89671 -22.8395
rtoes -8.21197
lfemur -7.0574 -16.5468 -10.1664
ltibia 12.4103
lfoot -12.3093 16.5499
ltoes -15.7581
407
root 12.47 16.4281 -13.4915 4.04949 -12.7571 0.0809613
lowerback 2.59989 -3.13483 -1.88522
upperback 3.65136 -4.2228 0.991569
thorax 2.51016 -2.17837 2.07908
lowerneck -3.88009 -5.92984 -7.14281
upperneck 9.48854 -9.74451 20.0531
head 4.82355 -4.20285 6.90394
rclavicle 1.59587e-014 1.58779e-014
rhumerus 39.9316 4.40125 16.403
rradius 117.767
rwrist -73.4672
rhand 27.8115 12.0857
rfingers 7.12502
rthumb 51.729 -8.17958
lclavicle 1.59587e-014 1.58779e-014
lhumerus -36.5707 -24.1109 93.1044
lradius 43.0629
lwrist -22.2679
lhand 2.14208 45.0084
lfingers 7.12502
lthumb 27.6405 72.9979
rfemur -14.8755 15.3017 15.9462
rtibia 22.5156
rfoot -5.52948 -22.9201
rtoes -10.0756
lfemur -7.09736 -16.5647 -10.1228
ltibia 12.473
lfoot -12.2235 16.5881
ltoes -16.4039
408
root 12.471 16.4257 -13.4911 4.09322 -12.739 0.0949331
lowerback 2.54743 -3.15081 -1.9
upperback 3.6287 -4.2437 1.00671
thorax 2.51953 -2.18922 2.10029
lowerneck -3.93891 -5.88849 -7.20725
upperneck 9.54182 -9.68704 20.0343
head 4.84342 -4.17188 6.91266
rclavicle -5.89459e-014 1.35671e-014
rhumerus 40.0846 4.40368 16.3878
rradius 118.228
rwrist -73.6383
rhand 27.6958 12.3011
rfingers 7.12502
rthumb 51.6239 -8.0253
lclavicle -5.89459e-014 1.35671e-014
lhumerus -36.6305 -24.0772 93.1313
lradius 43.1541
lwrist -22.2956
lhand 2.19764 45.0927
lfingers 7.12502
lthumb 27.6936 73.0737
rfemur -14.9289 15.2315 15.9313
rtibia 22.4779
rfoot -4.85215 -23.0688
rtoes -12.1511
lfemur -7.17059 -16.6337 -10.1264
ltibia 12.5257
lfoot -12.172 16.6485
ltoes -16.6028
409
root 12.4709 16.4249 -13.4923 4.10206 -12.7087 0.0902541
lowerback 2.60211 -3.22813 -1.97348
upperback 3.57617 -4.34947 1.07681
thorax 2.4516 -2.24391 2.21777
lowerneck -3.88998 -5.74391 -7.12971
upperneck 9.50406 -9.46275 19.8595
head 4.77736 -4.07157 6.86027
rclavicle -6.86366e-014 2.64881e-014
rhumerus 40.4353 4.39002 16.4196
rradius 118.708
rwrist -73.8774
rhand 27.1431 12.7183
rfingers 7.12502
rthumb 51.1212 -7.89519
lclavicle -6.86366e-014 2.64881e-014
lhumerus -36.7136 -23.7769 93.1754
lradius 43.1661
lwrist -22.3271
lhand 2.18538 45.2109
lfingers 7.12502
lthumb 27.6819 73.1938
rfemur -14.912 15.1968 15.9379
rtibia 22.4487
rfoot -4.71864 -23.0846
rtoes -12.405
lfemur -7.1789 -16.6759 -10.1162
ltibia 12.515
lfoot -12.1734 16.6547
ltoes -16.2419
410
root 12.4693 16.426 -13.4927 4.11999 -12.6839 0.107311
lowerback 2.61073 -3.28417 -2.06665
upperback 3.54334 -4.42615 1.12883
thorax 2.4288 -2.28485 2.32419
lowerneck -3.61801 -5.61332 -6.92902
upperneck 9.1629 -9.21537 19.6472
head 4.57132 -3.98371 6.77828
rclavicle 1.2101e-014 -7.20594e-015
rhumerus 40.7039 4.35807 16.444
rradius 119.158
rwrist -74.0259
rhand 27.1461 13.3868
rfingers 7.12502
rthumb 51.1239 -7.22526
lclavicle 1.2101e-014 -7.20594e-015
lhumerus -36.7374 -23.5706 93.1985
lradius 43.1496
lwrist -22.3242
lhand 2.15091 45.2426
lfingers 7.12502
lthumb 27.6489 73.2308
rfemur -14.9309 15.2104 15.9227
rtibia 22.4644
rfoot -4.51226 -23.1288
rtoes -11.7699
lfemur -7.19052 -16.6652 -10.1137
ltibia 12.4444
lfoot -11.8882 16.6867
ltoes -17.3148
411
root 12.4677 16.4272 -13.4919 4.1467 -12.656 0.223396
lowerback 2.52273 -3.28756 -2.19808
upperback 3.5416 -4.43009 1.10888
thorax 2.48534 -2.29034 2.37097
lowerneck -3.43058 -5.57282 -7.26398
upperneck 8.90437 -9.14472 20.0441
head 4.48539 -3.96804 6.97683
rclavicle 9.58639e-014 -1.75924e-014
rhumerus 40.7798 4.28724 16.3766
rradius 119.668
rwrist -74.2675
rhand 26.9984 13.4134
rfingers 7.12502
rthumb 50.9893 -7.27399
lclavicle 9.58639e-014 -1.75924e-014
lhumerus -36.7023 -23.6015 93.2265
lradius 43.1199
lwrist -22.2555
lhand 2.00597 45.2139
lfingers 7.12502
lthumb 27.5103 73.2242
rfemur -15.002 15.2211 15.7914
rtibia 22.4912
rfoot -4.37945 -23.2256
rtoes -10.7433
lfemur -7.23395 -16.6651 -10.2114
ltibia 12.3788
lfoot -11.5485 16.7222
ltoes -18.5906
412
root 12.4685 16.4266 -13.4914 4.14128 -12.622 0.27501
lowerback 2.50235 -3.2919 -2.23832
upperback 3.53619 -4.43553 1.09219
thorax 2.49332 -2.2938 2.37503
lowerneck -3.31797 -5.51447 -7.77211
upperneck 8.74223 -9.07434 20.6179
head 4.45746 -3.94344 7.26513
rclavicle -2.93456e-014 2.98674e-014
rhumerus 40.7325 4.23878 16.2929
rradius 120.313
rwrist -74.5248
rhand 26.7762 13.5308
rfingers 7.12502
rthumb 50.7867 -7.26891
lclavicle -2.93456e-014 2.98674e-014
lhumerus -36.7673 -23.6028 93.2657
lradius 43.0169
lwrist -22.509
lhand 1.59618 45.0038
lfingers 7.12502
lthumb 27.1183 73.0758
rfemur -15.0135 15.1944 15.7335
rtibia 22.5016
rfoot -4.34396 -23.2438
rtoes -10.5387
lfemur -7.20928 -16.6558 -10.2743
ltibia 12.3287
lfoot -11.8943 16.6329
ltoes -17.356
413
root 12.4696 16.4265 -13.4906 4.13389 -12.6363 0.154407
lowerback 2.50448 -3.2783 -2.10424
upperback 3.56435 -4.41677 1.11319
thorax 2.51119 -2.28191 2.32142
lowerneck -3.26351 -5.45377 -7.6435
upperneck 8.5031 -8.95414 20.589
head 4.35185 -3.89608 7.24072
rclavicle 3.15322e-014 -1.70955e-014
rhumerus 40.6907 4.19496 16.2842
rradius 120.968
rwrist -74.6833
rhand 26.4115 14.1021
rfingers 7.12502
rthumb 50.4538 -6.87908
lclavicle 3.15322e-014 -1.70955e-014
lhumerus -36.8019 -23.5992 93.2601
lradius 42.7733
lwrist -23.1316
lhand 0.831425 44.5807
lfingers 7.12502
lthumb 26.3865 72.7646
rfemur -14.9709 15.1979 15.8698
rtibia 22.5071
rfoot -4.50207 -23.2022
rtoes -10.4042
lfemur -7.14072 -16.6033 -10.1771
ltibia 12.3169
lfoot -12.1646 16.6377
ltoes -16.4657
414
root 12.4686 16.427 -13.4913 4.14664 -12.633 0.046167
lowerback 2.49141 -3.26119 -2.02741
upperback 3.58974 -4.39422 1.16305
thorax 2.54148 -2.27015 2.32828
lowerneck -3.29313 -5.39544 -7.25507
upperneck 8.37555 -8.83821 20.2799
head 4.27058 -3.84235 7.07557
rclavicle -4.70871e-015 8.54774e-015
rhumerus 40.7944 4.10589 16.3551
rradius 121.477
rwrist -74.8559
rhand 25.3966 14.1382
rfingers 7.12502
rthumb 49.525 -7.33045
lclavicle -4.70871e-015 8.54774e-015
lhumerus -36.7652 -23.6318 93.3136
lradius 42.7789
lwrist -22.986
lhand 0.646954 44.6177
lfingers 7.12502
lthumb 26.2099 72.828
rfemur -14.9595 15.202 15.9956
rtibia 22.5202
rfoot -4.6405 -23.1806
rtoes -10.2364
lfemur -7.16208 -16.5366 -10.0594
ltibia 12.34
lfoot -11.946 16.6428
ltoes -16.9244
415
root 12.468 16.4279 -13.4924 4.15912 -12.5683 0.0779556
lowerback 2.48404 -3.27773 -2.09475
upperback 3.57868 -4.41705 1.18145
thorax 2.54236 -2.28348 2.38428
lowerneck -3.28301 -5.32407 -7.081
upperneck 8.27781 -8.71977 20.1634
head 4.20962 -3.78833 7.01438
rclavicle 5.02801e-014 -1.04362e-014
rhumerus 40.7825 4.02003 16.4208
rradius 122.05
rwrist -74.9966
rhand 24.9929 14.8384
rfingers 7.12502
rthumb 49.1547 -6.81714
lclavicle 5.02801e-014 -1.04362e-014
lhumerus -36.7526 -23.6182 93.3837
lradius 43.0409
lwrist -22.1617
lhand 1.31233 45.0875
lfingers 7.12502
lthumb 26.8467 73.2015
rfemur -14.9825 15.2019 15.9531
rtibia 22.5376
rfoot -4.70245 -23.2174
rtoes -10.2975
lfemur -7.22938 -16.5621 -10.0665
ltibia 12.338
lfoot -11.9297 16.5502
ltoes -16.9627
416
root 12.4683 16.4293 -13.4922 4.1519 -12.5366 0.199439
lowerback 2.47274 -3.30566 -2.22438
upperback 3.56052 -4.4544 1.14654
thorax 2.53964 -2.30462 2.42005
lowerneck -3.32567 -5.28735 -7.03182
upperneck 8.25507 -8.65995 20.101
head 4.19678 -3.75852 6.98806
rclavicle 4.93856e-014 -1.14798e-014
rhumerus 40.7555 3.92339 16.3902
rradius 122.74
rwrist -75.1441
rhand 25.8944 15.7399
rfingers 7.12502
rthumb 49.981 -5.49276
lclavicle 4.93856e-014 -1.14798e-014
lhumerus -36.7788 -23.4371 93.3535
lradius 43.178
lwrist -21.8154
lhand 1.61189 45.2815
lfingers 7.12502
lthumb 27.1334 73.3512
rfemur -15.0158 15.2419 15.7996
rtibia 22.5653
rfoot -4.97602 -23.2853
rtoes -10.1927
lfemur -7.22818 -16.6651 -10.1867
ltibia 12.2921
lfoot -11.9943 16.5764
ltoes -17.1026
417
root 12.4681 16.4292 -13.4913 4.15487 -12.5708 0.249382
lowerback 2.45781 -3.31141 -2.28402
upperback 3.5482 -4.46187 1.12562
thorax 2.53877 -2.30936 2.43111
lowerneck -3.49425 -5.23897 -7.07029
upperneck 8.43292 -8.6182 20.1089
head 4.27508 -3.72119 6.99793
rclavicle 3.51228e-014 -8.84592e-015
rhumerus 40.9587 3.85267 16.3189
rradius 123.241
rwrist -75.3311
rhand 26.3188 15.5514
rfingers 7.12502
rthumb 50.3692 -5.47528
lclavicle 3.51228e-014 -8.84592e-015
lhumerus -36.8081 -23.2888 93.3201
lradius 43.2595
lwrist -21.7077
lhand 1.70248 45.6066
lfingers 7.12502
lthumb 27.22 73.6627
rfemur -15.0721 15.2641 15.7336
rtibia 22.6126
rfoot -4.84357 -23.2514
rtoes -10.9911
lfemur -7.18175 -16.7138 -10.2357
ltibia 12.2135
lfoot -11.8855 16.6397
ltoes -17.288
